<svg width="216" height="64" viewBox="0 0 216 64" fill="none" xmlns="http://www.w3.org/2000/svg">
<path d="M3.43298 63.9996C2.4278 63.9996 1.6364 63.7108 1.05879 63.1332C0.481186 62.5555 0.192383 61.7004 0.192383 60.5677V56.0556H1.02504V60.5339C1.02504 61.4641 1.23508 62.1505 1.65515 62.5931C2.07523 63.0356 2.66784 63.2569 3.43298 63.2569C4.20563 63.2569 4.80199 63.0356 5.22206 62.5931C5.64214 62.1505 5.85218 61.4641 5.85218 60.5339V56.0556H6.66233V60.5677C6.66233 61.7004 6.37353 62.5555 5.79592 63.1332C5.22581 63.7108 4.43817 63.9996 3.43298 63.9996Z" fill="#282828"/>
<path d="M9.52027 62.4018L9.54277 61.3778L13.2222 58.0247H14.2011L11.6019 60.5114L11.1518 60.894L9.52027 62.4018ZM8.89015 63.932V55.583H9.68905V63.932H8.89015ZM13.4698 63.932L11.0055 60.8602L11.5231 60.2414L14.4487 63.932H13.4698Z" fill="#282828"/>
<path d="M15.4476 63.932V58.0247H16.2127V59.6338L16.1339 59.3525C16.299 58.9024 16.5765 58.5611 16.9666 58.3285C17.3567 58.0885 17.8405 57.9684 18.4181 57.9684V58.7448C18.3881 58.7448 18.3581 58.7448 18.3281 58.7448C18.2981 58.7373 18.2681 58.7336 18.2381 58.7336C17.6155 58.7336 17.1279 58.9249 16.7753 59.3074C16.4227 59.6825 16.2465 60.2189 16.2465 60.9165V63.932H15.4476Z" fill="#282828"/>
<path d="M23.0258 63.932V62.6268L22.992 62.413V60.2301C22.992 59.7275 22.8495 59.3412 22.5644 59.0712C22.2869 58.8011 21.8705 58.6661 21.3154 58.6661C20.9329 58.6661 20.5691 58.7298 20.224 58.8574C19.8789 58.9849 19.5864 59.1537 19.3463 59.3637L18.9863 58.7673C19.2863 58.5123 19.6464 58.3173 20.0665 58.1822C20.4865 58.0397 20.9291 57.9684 21.3942 57.9684C22.1593 57.9684 22.7482 58.1597 23.1608 58.5423C23.5809 58.9174 23.7909 59.4912 23.7909 60.2639V63.932H23.0258ZM20.9891 63.9883C20.5465 63.9883 20.1602 63.917 19.8302 63.7745C19.5076 63.6245 19.2601 63.422 19.0875 63.1669C18.915 62.9044 18.8287 62.6043 18.8287 62.2667C18.8287 61.9592 18.9 61.6816 19.0425 61.4341C19.1925 61.179 19.4326 60.9765 19.7627 60.8265C20.1002 60.6689 20.5503 60.5902 21.1129 60.5902H23.1495V61.1865H21.1354C20.5653 61.1865 20.1677 61.2878 19.9427 61.4903C19.7251 61.6929 19.6164 61.9442 19.6164 62.2442C19.6164 62.5818 19.7477 62.8519 20.0102 63.0544C20.2727 63.2569 20.6403 63.3582 21.1129 63.3582C21.563 63.3582 21.9493 63.2569 22.2719 63.0544C22.6019 62.8443 22.842 62.5443 22.992 62.1542L23.172 62.7056C23.022 63.0956 22.7595 63.407 22.3844 63.6395C22.0168 63.872 21.5517 63.9883 20.9891 63.9883Z" fill="#282828"/>
<path d="M25.8483 63.932V58.0247H26.6472V63.932H25.8483ZM26.2533 56.7195C26.0883 56.7195 25.9495 56.6632 25.837 56.5507C25.7245 56.4382 25.6682 56.3031 25.6682 56.1456C25.6682 55.9881 25.7245 55.8568 25.837 55.7518C25.9495 55.6393 26.0883 55.583 26.2533 55.583C26.4184 55.583 26.5572 55.6355 26.6697 55.7405C26.7822 55.8456 26.8385 55.9768 26.8385 56.1344C26.8385 56.2994 26.7822 56.4382 26.6697 56.5507C26.5647 56.6632 26.4259 56.7195 26.2533 56.7195Z" fill="#282828"/>
<path d="M31.7731 57.9684C32.2532 57.9684 32.6733 58.0622 33.0333 58.2498C33.4009 58.4298 33.686 58.7073 33.8885 59.0824C34.0985 59.4575 34.2036 59.9301 34.2036 60.5002V63.932H33.4047V60.5789C33.4047 59.9563 33.2471 59.4875 32.9321 59.1724C32.6245 58.8499 32.1894 58.6886 31.6268 58.6886C31.2068 58.6886 30.8392 58.7748 30.5241 58.9474C30.2166 59.1124 29.9765 59.3562 29.804 59.6788C29.639 59.9938 29.5564 60.3764 29.5564 60.8265V63.932H28.7575V58.0247H29.5227V59.645L29.3989 59.3412C29.5865 58.9136 29.8865 58.5798 30.2991 58.3398C30.7117 58.0922 31.203 57.9684 31.7731 57.9684Z" fill="#282828"/>
<path d="M36.249 63.932V58.0247H37.0479V63.932H36.249ZM36.654 56.7195C36.489 56.7195 36.3502 56.6632 36.2377 56.5507C36.1252 56.4382 36.0689 56.3031 36.0689 56.1456C36.0689 55.9881 36.1252 55.8568 36.2377 55.7518C36.3502 55.6393 36.489 55.583 36.654 55.583C36.8191 55.583 36.9579 55.6355 37.0704 55.7405C37.1829 55.8456 37.2392 55.9768 37.2392 56.1344C37.2392 56.2994 37.1829 56.4382 37.0704 56.5507C36.9654 56.6632 36.8266 56.7195 36.654 56.7195Z" fill="#282828"/>
<path d="M42.8602 63.932V62.6268L42.8264 62.413V60.2301C42.8264 59.7275 42.6839 59.3412 42.3988 59.0712C42.1213 58.8011 41.705 58.6661 41.1499 58.6661C40.7673 58.6661 40.4035 58.7298 40.0584 58.8574C39.7134 58.9849 39.4208 59.1537 39.1808 59.3637L38.8207 58.7673C39.1207 58.5123 39.4808 58.3173 39.9009 58.1822C40.321 58.0397 40.7635 57.9684 41.2286 57.9684C41.9938 57.9684 42.5826 58.1597 42.9952 58.5423C43.4153 58.9174 43.6253 59.4912 43.6253 60.2639V63.932H42.8602ZM40.8236 63.9883C40.381 63.9883 39.9947 63.917 39.6646 63.7745C39.342 63.6245 39.0945 63.422 38.922 63.1669C38.7494 62.9044 38.6632 62.6043 38.6632 62.2667C38.6632 61.9592 38.7344 61.6816 38.8769 61.4341C39.027 61.179 39.267 60.9765 39.5971 60.8265C39.9346 60.6689 40.3847 60.5902 40.9473 60.5902H42.984V61.1865H40.9698C40.3997 61.1865 40.0022 61.2878 39.7771 61.4903C39.5596 61.6929 39.4508 61.9442 39.4508 62.2442C39.4508 62.5818 39.5821 62.8519 39.8446 63.0544C40.1072 63.2569 40.4747 63.3582 40.9473 63.3582C41.3974 63.3582 41.7837 63.2569 42.1063 63.0544C42.4364 62.8443 42.6764 62.5443 42.8264 62.1542L43.0065 62.7056C42.8564 63.0956 42.5939 63.407 42.2188 63.6395C41.8512 63.872 41.3862 63.9883 40.8236 63.9883Z" fill="#282828"/>
<path d="M48.6983 57.9684C49.1783 57.9684 49.5984 58.0622 49.9585 58.2498C50.3261 58.4298 50.6111 58.7073 50.8136 59.0824C51.0237 59.4575 51.1287 59.9301 51.1287 60.5002V63.932H50.3298V60.5789C50.3298 59.9563 50.1723 59.4875 49.8572 59.1724C49.5497 58.8499 49.1146 58.6886 48.552 58.6886C48.1319 58.6886 47.7643 58.7748 47.4493 58.9474C47.1417 59.1124 46.9017 59.3562 46.7291 59.6788C46.5641 59.9938 46.4816 60.3764 46.4816 60.8265V63.932H45.6827V58.0247H46.4478V59.645L46.3241 59.3412C46.5116 58.9136 46.8117 58.5798 47.2242 58.3398C47.6368 58.0922 48.1282 57.9684 48.6983 57.9684Z" fill="#282828"/>
<path d="M59.5959 63.9996C59.0033 63.9996 58.4557 63.902 57.9531 63.707C57.4505 63.5045 57.0154 63.2232 56.6479 62.8631C56.2803 62.503 55.9915 62.0792 55.7814 61.5916C55.5789 61.104 55.4776 60.5714 55.4776 59.9938C55.4776 59.4162 55.5789 58.8836 55.7814 58.396C55.9915 57.9084 56.2803 57.4846 56.6479 57.1245C57.0229 56.7645 57.4618 56.4869 57.9643 56.2919C58.4669 56.0894 59.0145 55.9881 59.6072 55.9881C60.1773 55.9881 60.7136 56.0856 61.2162 56.2806C61.7188 56.4682 62.1426 56.7532 62.4877 57.1358L61.9588 57.6646C61.6363 57.3346 61.28 57.0983 60.8899 56.9558C60.4998 56.8057 60.0797 56.7307 59.6297 56.7307C59.1571 56.7307 58.7182 56.8132 58.3132 56.9783C57.9081 57.1358 57.5555 57.3646 57.2555 57.6646C56.9554 57.9572 56.7191 58.3023 56.5466 58.6998C56.3816 59.0899 56.299 59.5212 56.299 59.9938C56.299 60.4664 56.3816 60.9015 56.5466 61.2991C56.7191 61.6891 56.9554 62.0342 57.2555 62.3343C57.5555 62.6268 57.9081 62.8556 58.3132 63.0206C58.7182 63.1782 59.1571 63.2569 59.6297 63.2569C60.0797 63.2569 60.4998 63.1819 60.8899 63.0319C61.28 62.8819 61.6363 62.6418 61.9588 62.3118L62.4877 62.8406C62.1426 63.2232 61.7188 63.512 61.2162 63.707C60.7136 63.902 60.1735 63.9996 59.5959 63.9996Z" fill="#282828"/>
<path d="M63.9814 63.932V58.0247H64.7465V59.6338L64.6678 59.3525C64.8328 58.9024 65.1104 58.5611 65.5004 58.3285C65.8905 58.0885 66.3743 57.9684 66.952 57.9684V58.7448C66.9219 58.7448 66.8919 58.7448 66.8619 58.7448C66.8319 58.7373 66.8019 58.7336 66.7719 58.7336C66.1493 58.7336 65.6617 58.9249 65.3091 59.3074C64.9566 59.6825 64.7803 60.2189 64.7803 60.9165V63.932H63.9814Z" fill="#282828"/>
<path d="M70.7515 63.9883C70.1363 63.9883 69.5962 63.8608 69.1312 63.6057C68.6661 63.3432 68.3023 62.9869 68.0397 62.5368C67.7772 62.0792 67.6459 61.5579 67.6459 60.9728C67.6459 60.3876 67.7697 59.87 68.0172 59.42C68.2722 58.9699 68.6173 58.6173 69.0524 58.3623C69.495 58.0997 69.9901 57.9684 70.5377 57.9684C71.0928 57.9684 71.5841 58.096 72.0117 58.351C72.4468 58.5986 72.7881 58.9511 73.0356 59.4087C73.2832 59.8588 73.4069 60.3801 73.4069 60.9728C73.4069 61.0103 73.4032 61.0515 73.3957 61.0965C73.3957 61.134 73.3957 61.1753 73.3957 61.2203H68.2535V60.6239H72.9681L72.6531 60.8602C72.6531 60.4327 72.5593 60.0538 72.3718 59.7238C72.1917 59.3862 71.9442 59.1237 71.6291 58.9361C71.3141 58.7486 70.9502 58.6548 70.5377 58.6548C70.1326 58.6548 69.7688 58.7486 69.4462 58.9361C69.1237 59.1237 68.8724 59.3862 68.6923 59.7238C68.5123 60.0613 68.4223 60.4477 68.4223 60.8827V61.0065C68.4223 61.4566 68.5198 61.8542 68.7148 62.1992C68.9174 62.5368 69.1949 62.8031 69.5475 62.9981C69.9076 63.1857 70.3164 63.2794 70.774 63.2794C71.134 63.2794 71.4678 63.2157 71.7754 63.0881C72.0905 62.9606 72.3605 62.7656 72.5855 62.503L73.0356 63.0206C72.7731 63.3357 72.443 63.5757 72.0454 63.7408C71.6554 63.9058 71.224 63.9883 70.7515 63.9883Z" fill="#282828"/>
<path d="M78.4576 63.932V62.6268L78.4239 62.413V60.2301C78.4239 59.7275 78.2814 59.3412 77.9963 59.0712C77.7188 58.8011 77.3024 58.6661 76.7473 58.6661C76.3647 58.6661 76.0009 58.7298 75.6559 58.8574C75.3108 58.9849 75.0182 59.1537 74.7782 59.3637L74.4181 58.7673C74.7182 58.5123 75.0783 58.3173 75.4983 58.1822C75.9184 58.0397 76.361 57.9684 76.8261 57.9684C77.5912 57.9684 78.1801 58.1597 78.5927 58.5423C79.0127 58.9174 79.2228 59.4912 79.2228 60.2639V63.932H78.4576ZM76.421 63.9883C75.9784 63.9883 75.5921 63.917 75.262 63.7745C74.9395 63.6245 74.6919 63.422 74.5194 63.1669C74.3469 62.9044 74.2606 62.6043 74.2606 62.2667C74.2606 61.9592 74.3319 61.6816 74.4744 61.4341C74.6244 61.179 74.8645 60.9765 75.1945 60.8265C75.5321 60.6689 75.9822 60.5902 76.5448 60.5902H78.5814V61.1865H76.5673C75.9972 61.1865 75.5996 61.2878 75.3746 61.4903C75.157 61.6929 75.0483 61.9442 75.0483 62.2442C75.0483 62.5818 75.1795 62.8519 75.4421 63.0544C75.7046 63.2569 76.0722 63.3582 76.5448 63.3582C76.9949 63.3582 77.3812 63.2569 77.7037 63.0544C78.0338 62.8443 78.2738 62.5443 78.4239 62.1542L78.6039 62.7056C78.4539 63.0956 78.1913 63.407 77.8163 63.6395C77.4487 63.872 76.9836 63.9883 76.421 63.9883Z" fill="#282828"/>
<path d="M83.148 63.9883C82.5929 63.9883 82.1653 63.8383 81.8653 63.5382C81.5652 63.2382 81.4152 62.8143 81.4152 62.2667V56.7195H82.2141V62.2217C82.2141 62.5668 82.3003 62.8331 82.4729 63.0206C82.6529 63.2082 82.908 63.3019 83.238 63.3019C83.5906 63.3019 83.8831 63.2007 84.1157 62.9981L84.397 63.572C84.2394 63.7145 84.0482 63.8195 83.8231 63.887C83.6056 63.9546 83.3805 63.9883 83.148 63.9883ZM80.3575 58.6886V58.0247H84.0144V58.6886H80.3575Z" fill="#282828"/>
<path d="M85.7388 63.932V58.0247H86.5377V63.932H85.7388ZM86.1439 56.7195C85.9788 56.7195 85.8401 56.6632 85.7275 56.5507C85.615 56.4382 85.5588 56.3031 85.5588 56.1456C85.5588 55.9881 85.615 55.8568 85.7275 55.7518C85.8401 55.6393 85.9788 55.583 86.1439 55.583C86.3089 55.583 86.4477 55.6355 86.5602 55.7405C86.6727 55.8456 86.729 55.9768 86.729 56.1344C86.729 56.2994 86.6727 56.4382 86.5602 56.5507C86.4552 56.6632 86.3164 56.7195 86.1439 56.7195Z" fill="#282828"/>
<path d="M90.1671 63.932L87.5454 58.0247H88.378L90.786 63.5045H90.3921L92.8338 58.0247H93.6215L90.9885 63.932H90.1671Z" fill="#282828"/>
<path d="M96.9785 63.9883C96.3634 63.9883 95.8233 63.8608 95.3582 63.6057C94.8931 63.3432 94.5293 62.9869 94.2667 62.5368C94.0042 62.0792 93.8729 61.5579 93.8729 60.9728C93.8729 60.3876 93.9967 59.87 94.2442 59.42C94.4993 58.9699 94.8443 58.6173 95.2794 58.3623C95.722 58.0997 96.2171 57.9684 96.7647 57.9684C97.3198 57.9684 97.8111 58.096 98.2387 58.351C98.6738 58.5986 99.0151 58.9511 99.2626 59.4087C99.5102 59.8588 99.634 60.3801 99.634 60.9728C99.634 61.0103 99.6302 61.0515 99.6227 61.0965C99.6227 61.134 99.6227 61.1753 99.6227 61.2203H94.4805V60.6239H99.1951L98.8801 60.8602C98.8801 60.4327 98.7863 60.0538 98.5988 59.7238C98.4187 59.3862 98.1712 59.1237 97.8561 58.9361C97.5411 58.7486 97.1773 58.6548 96.7647 58.6548C96.3596 58.6548 95.9958 58.7486 95.6732 58.9361C95.3507 59.1237 95.0994 59.3862 94.9193 59.7238C94.7393 60.0613 94.6493 60.4477 94.6493 60.8827V61.0065C94.6493 61.4566 94.7468 61.8542 94.9418 62.1992C95.1444 62.5368 95.4219 62.8031 95.7745 62.9981C96.1346 63.1857 96.5434 63.2794 97.001 63.2794C97.361 63.2794 97.6949 63.2157 98.0024 63.0881C98.3175 62.9606 98.5875 62.7656 98.8126 62.503L99.2626 63.0206C99.0001 63.3357 98.67 63.5757 98.2725 63.7408C97.8824 63.9058 97.4511 63.9883 96.9785 63.9883Z" fill="#282828"/>
<path d="M107.569 63.9996C106.977 63.9996 106.429 63.902 105.927 63.707C105.424 63.5045 104.989 63.2232 104.621 62.8631C104.254 62.503 103.965 62.0792 103.755 61.5916C103.552 61.104 103.451 60.5714 103.451 59.9938C103.451 59.4162 103.552 58.8836 103.755 58.396C103.965 57.9084 104.254 57.4846 104.621 57.1245C104.996 56.7645 105.435 56.4869 105.938 56.2919C106.44 56.0894 106.988 55.9881 107.581 55.9881C108.151 55.9881 108.687 56.0856 109.19 56.2806C109.692 56.4682 110.116 56.7532 110.461 57.1358L109.932 57.6646C109.61 57.3346 109.253 57.0983 108.863 56.9558C108.473 56.8057 108.053 56.7307 107.603 56.7307C107.13 56.7307 106.692 56.8132 106.287 56.9783C105.882 57.1358 105.529 57.3646 105.229 57.6646C104.929 57.9572 104.693 58.3023 104.52 58.6998C104.355 59.0899 104.272 59.5212 104.272 59.9938C104.272 60.4664 104.355 60.9015 104.52 61.2991C104.693 61.6891 104.929 62.0342 105.229 62.3343C105.529 62.6268 105.882 62.8556 106.287 63.0206C106.692 63.1782 107.13 63.2569 107.603 63.2569C108.053 63.2569 108.473 63.1819 108.863 63.0319C109.253 62.8819 109.61 62.6418 109.932 62.3118L110.461 62.8406C110.116 63.2232 109.692 63.512 109.19 63.707C108.687 63.902 108.147 63.9996 107.569 63.9996Z" fill="#282828"/>
<path d="M114.2 63.9883C113.585 63.9883 113.045 63.8608 112.58 63.6057C112.115 63.3432 111.751 62.9869 111.489 62.5368C111.226 62.0792 111.095 61.5579 111.095 60.9728C111.095 60.3876 111.219 59.87 111.466 59.42C111.721 58.9699 112.066 58.6173 112.501 58.3623C112.944 58.0997 113.439 57.9684 113.987 57.9684C114.542 57.9684 115.033 58.096 115.461 58.351C115.896 58.5986 116.237 58.9511 116.484 59.4087C116.732 59.8588 116.856 60.3801 116.856 60.9728C116.856 61.0103 116.852 61.0515 116.845 61.0965C116.845 61.134 116.845 61.1753 116.845 61.2203H111.702V60.6239H116.417L116.102 60.8602C116.102 60.4327 116.008 60.0538 115.821 59.7238C115.641 59.3862 115.393 59.1237 115.078 58.9361C114.763 58.7486 114.399 58.6548 113.987 58.6548C113.581 58.6548 113.218 58.7486 112.895 58.9361C112.573 59.1237 112.321 59.3862 112.141 59.7238C111.961 60.0613 111.871 60.4477 111.871 60.8827V61.0065C111.871 61.4566 111.969 61.8542 112.164 62.1992C112.366 62.5368 112.644 62.8031 112.996 62.9981C113.356 63.1857 113.765 63.2794 114.223 63.2794C114.583 63.2794 114.917 63.2157 115.224 63.0881C115.539 62.9606 115.809 62.7656 116.034 62.503L116.484 63.0206C116.222 63.3357 115.892 63.5757 115.494 63.7408C115.104 63.9058 114.673 63.9883 114.2 63.9883Z" fill="#282828"/>
<path d="M121.385 57.9684C121.865 57.9684 122.285 58.0622 122.645 58.2498C123.013 58.4298 123.298 58.7073 123.5 59.0824C123.71 59.4575 123.815 59.9301 123.815 60.5002V63.932H123.016V60.5789C123.016 59.9563 122.859 59.4875 122.544 59.1724C122.236 58.8499 121.801 58.6886 121.239 58.6886C120.819 58.6886 120.451 58.7748 120.136 58.9474C119.828 59.1124 119.588 59.3562 119.416 59.6788C119.251 59.9938 119.168 60.3764 119.168 60.8265V63.932H118.369V58.0247H119.135V59.645L119.011 59.3412C119.198 58.9136 119.498 58.5798 119.911 58.3398C120.323 58.0922 120.815 57.9684 121.385 57.9684Z" fill="#282828"/>
<path d="M127.729 63.9883C127.174 63.9883 126.746 63.8383 126.446 63.5382C126.146 63.2382 125.996 62.8143 125.996 62.2667V56.7195H126.795V62.2217C126.795 62.5668 126.881 62.8331 127.054 63.0206C127.234 63.2082 127.489 63.3019 127.819 63.3019C128.171 63.3019 128.464 63.2007 128.696 62.9981L128.978 63.572C128.82 63.7145 128.629 63.8195 128.404 63.887C128.186 63.9546 127.961 63.9883 127.729 63.9883ZM124.938 58.6886V58.0247H128.595V58.6886H124.938Z" fill="#282828"/>
<path d="M132.62 63.9883C132.005 63.9883 131.465 63.8608 131 63.6057C130.534 63.3432 130.171 62.9869 129.908 62.5368C129.646 62.0792 129.514 61.5579 129.514 60.9728C129.514 60.3876 129.638 59.87 129.886 59.42C130.141 58.9699 130.486 58.6173 130.921 58.3623C131.363 58.0997 131.858 57.9684 132.406 57.9684C132.961 57.9684 133.453 58.096 133.88 58.351C134.315 58.5986 134.657 58.9511 134.904 59.4087C135.152 59.8588 135.275 60.3801 135.275 60.9728C135.275 61.0103 135.272 61.0515 135.264 61.0965C135.264 61.134 135.264 61.1753 135.264 61.2203H130.122V60.6239H134.837L134.521 60.8602C134.521 60.4327 134.428 60.0538 134.24 59.7238C134.06 59.3862 133.813 59.1237 133.498 58.9361C133.182 58.7486 132.819 58.6548 132.406 58.6548C132.001 58.6548 131.637 58.7486 131.315 58.9361C130.992 59.1237 130.741 59.3862 130.561 59.7238C130.381 60.0613 130.291 60.4477 130.291 60.8827V61.0065C130.291 61.4566 130.388 61.8542 130.583 62.1992C130.786 62.5368 131.063 62.8031 131.416 62.9981C131.776 63.1857 132.185 63.2794 132.642 63.2794C133.002 63.2794 133.336 63.2157 133.644 63.0881C133.959 62.9606 134.229 62.7656 134.454 62.503L134.904 63.0206C134.642 63.3357 134.311 63.5757 133.914 63.7408C133.524 63.9058 133.092 63.9883 132.62 63.9883Z" fill="#282828"/>
<path d="M136.789 63.932V58.0247H137.554V59.6338L137.475 59.3525C137.64 58.9024 137.918 58.5611 138.308 58.3285C138.698 58.0885 139.182 57.9684 139.759 57.9684V58.7448C139.729 58.7448 139.699 58.7448 139.669 58.7448C139.639 58.7373 139.609 58.7336 139.579 58.7336C138.957 58.7336 138.469 58.9249 138.117 59.3074C137.764 59.6825 137.588 60.2189 137.588 60.9165V63.932H136.789Z" fill="#282828"/>
<path d="M144.194 63.932V56.0556H145.026V63.932H144.194Z" fill="#282828"/>
<path d="M147.308 63.932V58.0247H148.073V59.6338L147.994 59.3525C148.159 58.9024 148.437 58.5611 148.827 58.3285C149.217 58.0885 149.701 57.9684 150.278 57.9684V58.7448C150.248 58.7448 150.218 58.7448 150.188 58.7448C150.158 58.7373 150.128 58.7336 150.098 58.7336C149.476 58.7336 148.988 58.9249 148.636 59.3074C148.283 59.6825 148.107 60.2189 148.107 60.9165V63.932H147.308Z" fill="#282828"/>
<path d="M154.078 63.9883C153.463 63.9883 152.923 63.8608 152.458 63.6057C151.993 63.3432 151.629 62.9869 151.366 62.5368C151.104 62.0792 150.972 61.5579 150.972 60.9728C150.972 60.3876 151.096 59.87 151.344 59.42C151.599 58.9699 151.944 58.6173 152.379 58.3623C152.821 58.0997 153.317 57.9684 153.864 57.9684C154.419 57.9684 154.911 58.096 155.338 58.351C155.773 58.5986 156.115 58.9511 156.362 59.4087C156.61 59.8588 156.733 60.3801 156.733 60.9728C156.733 61.0103 156.73 61.0515 156.722 61.0965C156.722 61.134 156.722 61.1753 156.722 61.2203H151.58V60.6239H156.295L155.98 60.8602C155.98 60.4327 155.886 60.0538 155.698 59.7238C155.518 59.3862 155.271 59.1237 154.956 58.9361C154.641 58.7486 154.277 58.6548 153.864 58.6548C153.459 58.6548 153.095 58.7486 152.773 58.9361C152.45 59.1237 152.199 59.3862 152.019 59.7238C151.839 60.0613 151.749 60.4477 151.749 60.8827V61.0065C151.749 61.4566 151.846 61.8542 152.041 62.1992C152.244 62.5368 152.521 62.8031 152.874 62.9981C153.234 63.1857 153.643 63.2794 154.1 63.2794C154.461 63.2794 154.794 63.2157 155.102 63.0881C155.417 62.9606 155.687 62.7656 155.912 62.503L156.362 63.0206C156.1 63.3357 155.77 63.5757 155.372 63.7408C154.982 63.9058 154.551 63.9883 154.078 63.9883Z" fill="#282828"/>
<path d="M158.247 63.932V55.583H159.046V63.932H158.247Z" fill="#282828"/>
<path d="M164.858 63.932V62.6268L164.824 62.413V60.2301C164.824 59.7275 164.682 59.3412 164.397 59.0712C164.119 58.8011 163.703 58.6661 163.148 58.6661C162.765 58.6661 162.402 58.7298 162.056 58.8574C161.711 58.9849 161.419 59.1537 161.179 59.3637L160.819 58.7673C161.119 58.5123 161.479 58.3173 161.899 58.1822C162.319 58.0397 162.762 57.9684 163.227 57.9684C163.992 57.9684 164.581 58.1597 164.993 58.5423C165.413 58.9174 165.623 59.4912 165.623 60.2639V63.932H164.858ZM162.822 63.9883C162.379 63.9883 161.993 63.917 161.663 63.7745C161.34 63.6245 161.093 63.422 160.92 63.1669C160.747 62.9044 160.661 62.6043 160.661 62.2667C160.661 61.9592 160.732 61.6816 160.875 61.4341C161.025 61.179 161.265 60.9765 161.595 60.8265C161.933 60.6689 162.383 60.5902 162.945 60.5902H164.982V61.1865H162.968C162.398 61.1865 162 61.2878 161.775 61.4903C161.558 61.6929 161.449 61.9442 161.449 62.2442C161.449 62.5818 161.58 62.8519 161.843 63.0544C162.105 63.2569 162.473 63.3582 162.945 63.3582C163.395 63.3582 163.782 63.2569 164.104 63.0544C164.434 62.8443 164.674 62.5443 164.824 62.1542L165.005 62.7056C164.854 63.0956 164.592 63.407 164.217 63.6395C163.849 63.872 163.384 63.9883 162.822 63.9883Z" fill="#282828"/>
<path d="M170.696 57.9684C171.176 57.9684 171.596 58.0622 171.957 58.2498C172.324 58.4298 172.609 58.7073 172.812 59.0824C173.022 59.4575 173.127 59.9301 173.127 60.5002V63.932H172.328V60.5789C172.328 59.9563 172.17 59.4875 171.855 59.1724C171.548 58.8499 171.113 58.6886 170.55 58.6886C170.13 58.6886 169.762 58.7748 169.447 58.9474C169.14 59.1124 168.9 59.3562 168.727 59.6788C168.562 59.9938 168.48 60.3764 168.48 60.8265V63.932H167.681V58.0247H168.446V59.645L168.322 59.3412C168.51 58.9136 168.81 58.5798 169.222 58.3398C169.635 58.0922 170.126 57.9684 170.696 57.9684Z" fill="#282828"/>
<path d="M177.524 63.9883C176.961 63.9883 176.455 63.8608 176.005 63.6057C175.562 63.3507 175.213 62.9981 174.958 62.548C174.703 62.0905 174.576 61.5654 174.576 60.9728C174.576 60.3726 174.703 59.8475 174.958 59.3975C175.213 58.9474 175.562 58.5986 176.005 58.351C176.455 58.096 176.961 57.9684 177.524 57.9684C178.041 57.9684 178.503 58.0847 178.908 58.3173C179.32 58.5498 179.647 58.8911 179.887 59.3412C180.134 59.7838 180.258 60.3276 180.258 60.9728C180.258 61.6104 180.138 62.1542 179.898 62.6043C179.658 63.0544 179.332 63.3995 178.919 63.6395C178.514 63.872 178.049 63.9883 177.524 63.9883ZM177.58 63.2794C178 63.2794 178.375 63.1857 178.705 62.9981C179.043 62.8031 179.305 62.533 179.493 62.188C179.688 61.8354 179.786 61.4303 179.786 60.9728C179.786 60.5077 179.688 60.1026 179.493 59.7575C179.305 59.4125 179.043 59.1462 178.705 58.9586C178.375 58.7636 178 58.6661 177.58 58.6661C177.168 58.6661 176.796 58.7636 176.466 58.9586C176.136 59.1462 175.874 59.4125 175.679 59.7575C175.483 60.1026 175.386 60.5077 175.386 60.9728C175.386 61.4303 175.483 61.8354 175.679 62.188C175.874 62.533 176.136 62.8031 176.466 62.9981C176.796 63.1857 177.168 63.2794 177.58 63.2794ZM179.808 63.932V62.1542L179.887 60.9615L179.774 59.7688V55.583H180.573V63.932H179.808Z" fill="#282828"/>
<path d="M44.4864 45.5157C38.6517 45.5157 34.0643 43.8456 30.7241 40.5055C27.3839 37.1653 25.7139 32.2819 25.7139 25.8553V0.613808H32.0559V25.6016C32.0559 30.5484 33.1341 34.1634 35.2904 36.4466C37.489 38.7297 40.5755 39.8713 44.5499 39.8713C48.5665 39.8713 51.653 38.7297 53.8093 36.4466C56.0079 34.1634 57.1072 30.5484 57.1072 25.6016V0.613808H63.259V25.8553C63.259 32.2819 61.5889 37.1653 58.2487 40.5055C54.9509 43.8456 50.3634 45.5157 44.4864 45.5157Z" fill="#282828"/>
<path d="M98.0146 45.5157C94.6321 45.5157 91.5034 44.9661 88.6283 43.8668C85.7955 42.7252 83.3221 41.1397 81.2081 39.1102C79.1363 37.0385 77.5085 34.6285 76.3247 31.8803C75.1408 29.132 74.5489 26.109 74.5489 22.8111C74.5489 19.5132 75.1408 16.4901 76.3247 13.7419C77.5085 10.9937 79.1575 8.60483 81.2715 6.57536C83.3855 4.50362 85.8589 2.9181 88.6917 1.8188C91.5668 0.67723 94.6956 0.106445 98.078 0.106445C101.503 0.106445 104.653 0.698373 107.528 1.88223C110.445 3.0238 112.918 4.73616 114.948 7.01931L110.826 11.0148C109.134 9.23904 107.232 7.92834 105.118 7.08273C103.004 6.19484 100.742 5.75089 98.3317 5.75089C95.8371 5.75089 93.5117 6.1737 91.3554 7.01931C89.2414 7.86492 87.4022 9.04877 85.8378 10.5709C84.2734 12.093 83.0473 13.911 82.1594 16.0251C81.3138 18.0968 80.891 20.3588 80.891 22.8111C80.891 25.2634 81.3138 27.5465 82.1594 29.6605C83.0473 31.7323 84.2734 33.5292 85.8378 35.0513C87.4022 36.5734 89.2414 37.7572 91.3554 38.6029C93.5117 39.4485 95.8371 39.8713 98.3317 39.8713C100.742 39.8713 103.004 39.4485 105.118 38.6029C107.232 37.715 109.134 36.362 110.826 34.5439L114.948 38.5394C112.918 40.8226 110.445 42.5561 107.528 43.7399C104.653 44.9238 101.482 45.5157 98.0146 45.5157Z" fill="#282828"/>
<path d="M144.82 45.5157C141.437 45.5157 138.308 44.9661 135.433 43.8668C132.601 42.7252 130.127 41.1397 128.013 39.1102C125.941 37.0385 124.314 34.6285 123.13 31.8803C121.946 29.132 121.354 26.109 121.354 22.8111C121.354 19.5132 121.946 16.4901 123.13 13.7419C124.314 10.9937 125.963 8.60483 128.077 6.57536C130.191 4.50362 132.664 2.9181 135.497 1.8188C138.372 0.67723 141.501 0.106445 144.883 0.106445C148.308 0.106445 151.458 0.698373 154.333 1.88223C157.25 3.0238 159.724 4.73616 161.753 7.01931L157.631 11.0148C155.939 9.23904 154.037 7.92834 151.923 7.08273C149.809 6.19484 147.547 5.75089 145.137 5.75089C142.642 5.75089 140.317 6.1737 138.16 7.01931C136.046 7.86492 134.207 9.04877 132.643 10.5709C131.078 12.093 129.852 13.911 128.964 16.0251C128.119 18.0968 127.696 20.3588 127.696 22.8111C127.696 25.2634 128.119 27.5465 128.964 29.6605C129.852 31.7323 131.078 33.5292 132.643 35.0513C134.207 36.5734 136.046 37.7572 138.16 38.6029C140.317 39.4485 142.642 39.8713 145.137 39.8713C147.547 39.8713 149.809 39.4485 151.923 38.6029C154.037 37.715 155.939 36.362 157.631 34.5439L161.753 38.5394C159.724 40.8226 157.25 42.5561 154.333 43.7399C151.458 44.9238 148.287 45.5157 144.82 45.5157Z" fill="#282828"/>
<path d="M172.703 45.0084V0.613808H179.045V45.0084H172.703Z" fill="#282828"/>
<rect width="17.901" height="24.0385" fill="#377EF9"/>
<rect y="24.0381" width="17.901" height="24.0385" fill="#E9B11C"/>
</svg>
