<svg width="390" height="453" viewBox="0 0 390 453" fill="none" xmlns="http://www.w3.org/2000/svg">
<mask id="mask0_102_12615" style="mask-type:alpha" maskUnits="userSpaceOnUse" x="0" y="0" width="390" height="453">
<rect width="390" height="453" fill="#D9D9D9"/>
</mask>
<g mask="url(#mask0_102_12615)">
<path d="M289.625 -1.52832L390.472 -1.52832L390.472 102.472C377.881 102.472 378.899 95.0323 369.641 68.6147C360.383 42.1972 338.23 34.4542 305.827 22.0045C279.904 12.0448 284.224 2.16608 289.625 -1.52832Z" fill="#FEF6CC"/>
<path d="M101.504 -10.5L5.5 -10.5C12.7421 3.46331 23.3267 10.6153 32.7972 15.7238C42.2676 20.8323 73.4644 26.7923 90.3627 12.9992C103.881 1.96481 103.423 -7.2646 101.504 -10.5Z" fill="#FEF6CC"/>
<ellipse cx="3.16628" cy="3.16621" rx="3.16628" ry="3.16621" transform="matrix(-0.721866 -0.692032 0.69245 -0.721466 345.769 451.408)" fill="#377EF9"/>
<path d="M369.6 414.799C372.235 412.053 376.598 411.962 379.346 414.596C382.093 417.23 382.184 421.591 379.549 424.336C376.913 427.082 372.55 427.173 369.803 424.539C367.055 421.905 366.965 417.544 369.6 414.799Z" stroke="#317DC9" stroke-width="4"/>
<path d="M16.2389 346.453C19.0653 343.508 23.7454 343.41 26.6921 346.235C29.6387 349.06 29.7361 353.737 26.9096 356.682C24.0832 359.627 19.4031 359.725 16.4564 356.9C13.5098 354.075 13.4124 349.397 16.2389 346.453Z" stroke="#E9B11C" stroke-width="3"/>
<ellipse cx="3.16628" cy="3.16621" rx="3.16628" ry="3.16621" transform="matrix(-0.721866 -0.692032 0.69245 -0.721466 376.529 388.31)" fill="#FFEB83"/>
<ellipse cx="3.16628" cy="3.16621" rx="3.16628" ry="3.16621" transform="matrix(-0.721866 -0.692032 0.69245 -0.721466 20.5713 397.951)" fill="#377EF9"/>
<ellipse cx="3.16628" cy="3.16621" rx="3.16628" ry="3.16621" transform="matrix(-0.721866 -0.692032 0.69245 -0.721466 369.571 339.951)" fill="#377EF9"/>
<ellipse cx="4.34511" cy="4.345" rx="4.34511" ry="4.345" transform="matrix(-0.721866 -0.692032 0.69245 -0.721466 49.0664 374.779)" fill="#FFC0BE"/>
<path d="M47.8842 409.202L49.5509 410.464C50.9495 409.672 52.0509 408.845 53.4061 407.349C55.0828 405.499 52.0589 403.709 50.9299 401.482C49.4178 398.499 51.7909 397.331 52.8022 396.891L51.5819 395.343C50.4946 396.35 49.2453 397.471 48.6442 398.754C47.5003 401.194 50.788 404.057 51.6612 405.385C52.402 406.512 49.5652 408.333 47.8842 409.202Z" fill="#377EF9"/>
<path d="M335.633 386.343L336.496 388.247C338.104 388.219 339.467 388.019 341.372 387.353C343.729 386.528 341.925 383.513 341.996 381.018C342.091 377.676 344.735 377.784 345.834 377.88L345.5 375.938C344.064 376.303 342.43 376.691 341.289 377.53C339.119 379.127 340.642 383.212 340.776 384.795C340.889 386.138 337.526 386.382 335.633 386.343Z" fill="#FFC0BE"/>
<path d="M13.4742 423.178L10.7474 427.188C11.928 430.612 13.2374 433.314 15.7453 436.655C18.8482 440.787 22.8601 433.495 27.2794 430.822C33.1984 427.241 34.8707 433.045 35.4766 435.516L38.6422 432.6C36.9915 429.925 35.1628 426.854 32.8897 425.353C28.5645 422.497 22.484 430.396 19.8054 432.476C17.5326 434.241 14.7384 427.29 13.4742 423.178Z" fill="#FFC0BE"/>
<path d="M326.358 419.668L323.435 420.558C322.655 422.699 322.224 424.538 322.125 427.16C322.004 430.405 326.856 428.414 330.076 428.845C334.389 429.423 332.905 432.922 332.222 434.371L334.925 434.189C335.178 432.23 335.502 430.007 334.986 428.377C334.004 425.276 327.9 426.749 325.766 426.713C323.956 426.682 325.346 422.179 326.358 419.668Z" fill="#FFEB83"/>
<path d="M353.462 310.07L354.842 313.115C357.413 313.07 359.593 312.751 362.64 311.685C366.41 310.367 363.525 305.544 363.638 301.553C363.79 296.209 368.018 296.381 369.777 296.535L369.243 293.429C366.945 294.013 364.333 294.633 362.508 295.976C359.036 298.53 361.472 305.062 361.686 307.594C361.867 309.743 356.489 310.133 353.462 310.07Z" fill="#E9B11C"/>
</g>
</svg>
