<svg width="49" height="48" viewBox="0 0 49 48" fill="none" xmlns="http://www.w3.org/2000/svg">
<g clip-path="url(#clip0_102_11605)">
<path d="M28.5 28.504V32.684C26.6898 32.044 24.7526 31.8477 22.8508 32.1116C20.9491 32.3754 19.1384 33.0918 17.5709 34.2004C16.0033 35.3091 14.7247 36.7776 13.8423 38.4828C12.96 40.188 12.4996 42.08 12.5 44L8.5 43.998C8.49938 41.5558 9.05784 39.1458 10.1326 36.9528C11.2074 34.7598 12.7699 32.8419 14.7004 31.3461C16.631 29.8503 18.8784 28.8163 21.2703 28.3233C23.6623 27.8303 26.1353 27.8914 28.5 28.502V28.504ZM24.5 26C17.87 26 12.5 20.63 12.5 14C12.5 7.37 17.87 2 24.5 2C31.13 2 36.5 7.37 36.5 14C36.5 20.63 31.13 26 24.5 26ZM24.5 22C28.92 22 32.5 18.42 32.5 14C32.5 9.58 28.92 6 24.5 6C20.08 6 16.5 9.58 16.5 14C16.5 18.42 20.08 22 24.5 22ZM36.5 34V28H40.5V34H46.5V38H40.5V44H36.5V38H30.5V34H36.5Z" fill="url(#paint0_linear_102_11605)"/>
</g>
<defs>
<linearGradient id="paint0_linear_102_11605" x1="27.5" y1="2" x2="27.5" y2="44" gradientUnits="userSpaceOnUse">
<stop stop-color="#4A9AFF"/>
<stop offset="1" stop-color="#FBEB11"/>
</linearGradient>
<clipPath id="clip0_102_11605">
<rect width="48" height="48" fill="white" transform="translate(0.5)"/>
</clipPath>
</defs>
</svg>
