<svg width="144" height="36" viewBox="0 0 144 36" fill="none" xmlns="http://www.w3.org/2000/svg">
<path d="M39.1321 36C34.6186 36 31.0699 34.7128 28.4861 32.1383C25.9023 29.5638 24.6104 25.7998 24.6104 20.8464V1.39106H29.5163V20.6508C29.5163 24.4637 30.3504 27.25 32.0184 29.0098C33.7191 30.7696 36.1067 31.6494 39.1811 31.6494C42.2883 31.6494 44.6758 30.7696 46.3439 29.0098C48.0446 27.25 48.895 24.4637 48.895 20.6508V1.39106H53.6538V20.8464C53.6538 25.7998 52.3619 29.5638 49.7781 32.1383C47.227 34.7128 43.6783 36 39.1321 36Z" fill="black"/>
<path d="M80.5394 36C77.9229 36 75.5026 35.5764 73.2785 34.729C71.0872 33.8492 69.1738 32.6271 67.5385 31.0629C65.9359 29.466 64.6767 27.6085 63.7609 25.4902C62.8451 23.372 62.3872 21.0419 62.3872 18.5C62.3872 15.9581 62.8451 13.628 63.7609 11.5098C64.6767 9.39153 65.9522 7.55028 67.5876 5.98603C69.2229 4.3892 71.1362 3.16713 73.3276 2.31983C75.5516 1.43994 77.9719 1 80.5885 1C83.2377 1 85.6743 1.45624 87.8984 2.36872C90.1551 3.2486 92.0685 4.56843 93.6384 6.32821L90.4495 9.40782C89.1412 8.03911 87.6694 7.02886 86.0341 6.37709C84.3988 5.69274 82.649 5.35056 80.7847 5.35056C78.855 5.35056 77.0561 5.67644 75.3881 6.32821C73.7528 6.97998 72.33 7.89246 71.1199 9.06564C69.9097 10.2388 68.9613 11.6401 68.2744 13.2696C67.6203 14.8664 67.2932 16.6099 67.2932 18.5C67.2932 20.3901 67.6203 22.1499 68.2744 23.7793C68.9613 25.3762 69.9097 26.7612 71.1199 27.9344C72.33 29.1075 73.7528 30.02 75.3881 30.6718C77.0561 31.3236 78.855 31.6494 80.7847 31.6494C82.649 31.6494 84.3988 31.3236 86.0341 30.6718C87.6694 29.9874 89.1412 28.9446 90.4495 27.5433L93.6384 30.6229C92.0685 32.3827 90.1551 33.7188 87.8984 34.6313C85.6743 35.5438 83.2213 36 80.5394 36Z" fill="black"/>
<path d="M116.746 36C114.129 36 111.709 35.5764 109.485 34.729C107.294 33.8492 105.38 32.6271 103.745 31.0629C102.142 29.466 100.883 27.6085 99.9675 25.4902C99.0517 23.372 98.5938 21.0419 98.5938 18.5C98.5938 15.9581 99.0517 13.628 99.9675 11.5098C100.883 9.39153 102.159 7.55028 103.794 5.98603C105.429 4.3892 107.343 3.16713 109.534 2.31983C111.758 1.43994 114.179 1 116.795 1C119.444 1 121.881 1.45624 124.105 2.36872C126.362 3.2486 128.275 4.56843 129.845 6.32821L126.656 9.40782C125.348 8.03911 123.876 7.02886 122.241 6.37709C120.605 5.69274 118.856 5.35056 116.991 5.35056C115.062 5.35056 113.263 5.67644 111.595 6.32821C109.959 6.97998 108.537 7.89246 107.326 9.06564C106.116 10.2388 105.168 11.6401 104.481 13.2696C103.827 14.8664 103.5 16.6099 103.5 18.5C103.5 20.3901 103.827 22.1499 104.481 23.7793C105.168 25.3762 106.116 26.7612 107.326 27.9344C108.537 29.1075 109.959 30.02 111.595 30.6718C113.263 31.3236 115.062 31.6494 116.991 31.6494C118.856 31.6494 120.605 31.3236 122.241 30.6718C123.876 29.9874 125.348 28.9446 126.656 27.5433L129.845 30.6229C128.275 32.3827 126.362 33.7188 124.105 34.6313C121.881 35.5438 119.428 36 116.746 36Z" fill="black"/>
<path d="M138.315 35.6089V1.39106H143.221V35.6089H138.315Z" fill="black"/>
<rect y="1" width="16.7553" height="17.5" fill="#377EF9"/>
<rect y="18.5" width="16.7553" height="17.5" fill="#E9B11C"/>
</svg>
