<svg width="202" height="278" viewBox="0 0 202 278" fill="none" xmlns="http://www.w3.org/2000/svg">
<path d="M59.0374 145.775L58.1414 149.449C60.4616 151.203 62.6251 152.438 66.0813 153.614C70.3574 155.069 71.1545 148.761 74.0395 145.285C77.9034 140.63 81.5473 143.732 83.0056 145.095L84.697 141.956C82.2441 140.874 79.4859 139.605 76.925 139.528C72.0519 139.383 69.6632 146.9 68.0867 149.305C66.7491 151.345 61.6889 147.942 59.0374 145.775Z" fill="#E9B11C"/>
<path d="M71.5775 65.4169L72.4817 69.0895C75.3495 69.5718 77.839 69.667 81.4473 69.1121C85.9117 68.4255 83.7025 62.4633 84.6542 58.0479C85.9288 52.1341 90.5939 53.2004 92.517 53.7347L92.566 50.1697C89.8907 50.3439 86.8582 50.4934 84.5518 51.6093C80.1633 53.7327 81.5201 61.503 81.2337 64.3639C80.9906 66.7913 74.9303 66.1126 71.5775 65.4169Z" fill="#377EF9"/>
<path d="M106.762 251.155L103.25 249.749C101.187 251.798 99.6583 253.765 98.006 257.021C95.9618 261.049 102.094 262.729 105.127 266.076C109.189 270.558 105.604 273.728 104.049 274.979L106.917 277.097C108.335 274.821 109.981 272.27 110.419 269.745C111.251 264.942 104.146 261.515 101.989 259.615C100.158 258.002 104.242 253.474 106.762 251.155Z" fill="#FFC0BE"/>
<circle cx="155.926" cy="222.25" r="5.72808" fill="#377EF9"/>
<circle cx="181.703" cy="48.4976" r="5.72808" fill="#377EF9"/>
<circle cx="198.409" cy="74.7515" r="3.34138" fill="#FFC0BE"/>
<circle cx="193.396" cy="250.127" r="5.72808" fill="#E9B11C"/>
<path d="M24.3674 26.8229L22.9228 30.3185C20.0151 30.3653 17.5394 30.0863 14.0551 28.9967C9.74417 27.6486 12.8222 22.085 12.5432 17.5768C12.1696 11.5387 7.39741 11.8936 5.41593 12.1335L5.90195 8.6014C8.52092 9.17479 11.4968 9.77716 13.6097 11.2262C17.6303 13.9836 15.1239 21.4627 14.9782 24.3342C14.8546 26.7705 20.9481 27.0081 24.3674 26.8229Z" fill="#FFC0BE"/>
<circle cx="11.9335" cy="11.9335" r="17.4335" transform="matrix(-1 0 0 1 167.62 119.335)" stroke="#FFC0BE" stroke-width="11"/>
<circle cx="11.9335" cy="11.9335" r="8.93351" transform="matrix(-1 0 0 1 151.39 0)" stroke="#E9B11C" stroke-width="6"/>
<circle cx="8.11479" cy="8.11479" r="8.11479" transform="matrix(-1 0 0 1 91.2455 219.577)" fill="#377EF9"/>
</svg>
