<svg width="64" height="64" viewBox="0 0 64 64" fill="none" xmlns="http://www.w3.org/2000/svg">
<path d="M60.9764 32C60.9646 48.0184 47.9797 61 31.9786 61C15.9776 61 3.01194 48.0184 3.0238 32C3.03565 15.9816 16.0205 3 32.0216 3C48.0227 3 60.9883 15.9816 60.9764 32Z" stroke="#377EF9" stroke-width="6"/>
<path d="M25.8537 41V38.912L32.5257 32.576C33.0857 32.048 33.5017 31.584 33.7737 31.184C34.0457 30.784 34.2217 30.416 34.3017 30.08C34.3977 29.728 34.4457 29.4 34.4457 29.096C34.4457 28.328 34.1817 27.736 33.6537 27.32C33.1257 26.888 32.3497 26.672 31.3257 26.672C30.5097 26.672 29.7657 26.816 29.0937 27.104C28.4377 27.392 27.8697 27.832 27.3897 28.424L25.2057 26.744C25.8617 25.864 26.7417 25.184 27.8457 24.704C28.9657 24.208 30.2137 23.96 31.5897 23.96C32.8057 23.96 33.8617 24.16 34.7577 24.56C35.6697 24.944 36.3657 25.496 36.8457 26.216C37.3417 26.936 37.5897 27.792 37.5897 28.784C37.5897 29.328 37.5177 29.872 37.3737 30.416C37.2297 30.944 36.9577 31.504 36.5577 32.096C36.1577 32.688 35.5737 33.352 34.8057 34.088L29.0697 39.536L28.4217 38.36H38.2377V41H25.8537Z" fill="black"/>
</svg>
