<svg width="40" height="40" viewBox="0 0 40 40" fill="none" xmlns="http://www.w3.org/2000/svg">
<g clip-path="url(#clip0_102_10528)">
<path d="M19.9997 18.3335C22.2098 18.3335 24.3294 19.2115 25.8922 20.7743C27.455 22.3371 28.333 24.4567 28.333 26.6668V36.6668H24.9997V26.6668C24.9997 25.3915 24.5125 24.1643 23.6375 23.2364C22.7626 22.3085 21.5662 21.75 20.293 21.6752L19.9997 21.6668C18.7243 21.6668 17.4972 22.154 16.5692 23.029C15.6413 23.9039 15.0828 25.1003 15.008 26.3735L14.9997 26.6668V36.6668H11.6663V26.6668C11.6663 24.4567 12.5443 22.3371 14.1071 20.7743C15.6699 19.2115 17.7895 18.3335 19.9997 18.3335ZM9.16634 23.3335C9.63134 23.3335 10.083 23.3885 10.5163 23.4902C10.2314 24.3385 10.0626 25.2215 10.0147 26.1152L9.99967 26.6668V26.8102C9.8081 26.7416 9.60883 26.6968 9.40634 26.6768L9.16634 26.6668C8.54487 26.6669 7.94569 26.8984 7.48564 27.3162C7.0256 27.734 6.73767 28.3082 6.67801 28.9268L6.66634 29.1668V36.6668H3.33301V29.1668C3.33301 27.6197 3.94759 26.136 5.04155 25.042C6.13551 23.9481 7.61925 23.3335 9.16634 23.3335ZM30.833 23.3335C32.3801 23.3335 33.8638 23.9481 34.9578 25.042C36.0518 26.136 36.6663 27.6197 36.6663 29.1668V36.6668H33.333V29.1668C33.333 28.5454 33.1015 27.9462 32.6836 27.4861C32.2658 27.0261 31.6916 26.7382 31.073 26.6785L30.833 26.6668C30.5413 26.6668 30.2613 26.7168 29.9997 26.8085V26.6668C29.9997 25.5568 29.8197 24.4902 29.4847 23.4935C29.9163 23.3885 30.368 23.3335 30.833 23.3335ZM9.16634 13.3335C10.2714 13.3335 11.3312 13.7725 12.1126 14.5539C12.894 15.3353 13.333 16.3951 13.333 17.5002C13.333 18.6052 12.894 19.665 12.1126 20.4464C11.3312 21.2278 10.2714 21.6668 9.16634 21.6668C8.06127 21.6668 7.00146 21.2278 6.22006 20.4464C5.43866 19.665 4.99967 18.6052 4.99967 17.5002C4.99967 16.3951 5.43866 15.3353 6.22006 14.5539C7.00146 13.7725 8.06127 13.3335 9.16634 13.3335ZM30.833 13.3335C31.9381 13.3335 32.9979 13.7725 33.7793 14.5539C34.5607 15.3353 34.9997 16.3951 34.9997 17.5002C34.9997 18.6052 34.5607 19.665 33.7793 20.4464C32.9979 21.2278 31.9381 21.6668 30.833 21.6668C29.7279 21.6668 28.6681 21.2278 27.8867 20.4464C27.1053 19.665 26.6663 18.6052 26.6663 17.5002C26.6663 16.3951 27.1053 15.3353 27.8867 14.5539C28.6681 13.7725 29.7279 13.3335 30.833 13.3335ZM9.16634 16.6668C8.94533 16.6668 8.73337 16.7546 8.57709 16.9109C8.42081 17.0672 8.33301 17.2792 8.33301 17.5002C8.33301 17.7212 8.42081 17.9331 8.57709 18.0894C8.73337 18.2457 8.94533 18.3335 9.16634 18.3335C9.38736 18.3335 9.59932 18.2457 9.7556 18.0894C9.91188 17.9331 9.99967 17.7212 9.99967 17.5002C9.99967 17.2792 9.91188 17.0672 9.7556 16.9109C9.59932 16.7546 9.38736 16.6668 9.16634 16.6668ZM30.833 16.6668C30.612 16.6668 30.4 16.7546 30.2438 16.9109C30.0875 17.0672 29.9997 17.2792 29.9997 17.5002C29.9997 17.7212 30.0875 17.9331 30.2438 18.0894C30.4 18.2457 30.612 18.3335 30.833 18.3335C31.054 18.3335 31.266 18.2457 31.4223 18.0894C31.5785 17.9331 31.6663 17.7212 31.6663 17.5002C31.6663 17.2792 31.5785 17.0672 31.4223 16.9109C31.266 16.7546 31.054 16.6668 30.833 16.6668ZM19.9997 3.3335C21.7678 3.3335 23.4635 4.03588 24.7137 5.28612C25.964 6.53636 26.6663 8.23205 26.6663 10.0002C26.6663 11.7683 25.964 13.464 24.7137 14.7142C23.4635 15.9645 21.7678 16.6668 19.9997 16.6668C18.2316 16.6668 16.5359 15.9645 15.2856 14.7142C14.0354 13.464 13.333 11.7683 13.333 10.0002C13.333 8.23205 14.0354 6.53636 15.2856 5.28612C16.5359 4.03588 18.2316 3.3335 19.9997 3.3335ZM19.9997 6.66683C19.1156 6.66683 18.2678 7.01802 17.6427 7.64314C17.0175 8.26826 16.6663 9.11611 16.6663 10.0002C16.6663 10.8842 17.0175 11.7321 17.6427 12.3572C18.2678 12.9823 19.1156 13.3335 19.9997 13.3335C20.8837 13.3335 21.7316 12.9823 22.3567 12.3572C22.9818 11.7321 23.333 10.8842 23.333 10.0002C23.333 9.11611 22.9818 8.26826 22.3567 7.64314C21.7316 7.01802 20.8837 6.66683 19.9997 6.66683Z" fill="url(#paint0_linear_102_10528)"/>
</g>
<defs>
<linearGradient id="paint0_linear_102_10528" x1="19.9997" y1="3.3335" x2="19.9997" y2="36.6668" gradientUnits="userSpaceOnUse">
<stop stop-color="#4A9AFF"/>
<stop offset="1" stop-color="#FBEB11"/>
</linearGradient>
<clipPath id="clip0_102_10528">
<rect width="40" height="40" fill="white"/>
</clipPath>
</defs>
</svg>
