<svg width="40" height="40" viewBox="0 0 40 40" fill="none" xmlns="http://www.w3.org/2000/svg">
<g clip-path="url(#clip0_102_10523)">
<path d="M18.3333 3.3335C25.1133 3.3335 30.71 8.3935 31.5567 14.9418L35.3067 20.8402C35.5533 21.2285 35.5033 21.8068 34.9317 22.0535L31.6667 23.4502V28.3335C31.6667 30.1752 30.175 31.6668 28.3333 31.6668H25.0017L25 36.6668H10V30.5102C10 28.5435 9.27333 26.6818 7.92667 25.0018C6.095 22.7185 5 19.8202 5 16.6668C5 9.3035 10.97 3.3335 18.3333 3.3335ZM18.3333 6.66683C12.81 6.66683 8.33333 11.1435 8.33333 16.6668C8.33333 18.9752 9.11333 21.1552 10.5267 22.9168C12.35 25.1902 13.3333 27.7785 13.3333 30.5102V33.3335H21.6667L21.67 28.3335H28.3333V21.2535L30.9167 20.1468L28.345 16.1052L28.25 15.3685C27.61 10.4185 23.3733 6.66683 18.3333 6.66683ZM18.3333 11.6668C19.2533 11.6668 20 12.4135 20 13.3335V15.0002H21.6667C22.5867 15.0002 23.3333 15.7468 23.3333 16.6668C23.3333 17.5868 22.5867 18.3335 21.6667 18.3335H20V20.0002C20 20.9202 19.2533 21.6668 18.3333 21.6668C17.4133 21.6668 16.6667 20.9202 16.6667 20.0002V18.3318L15 18.3335C14.08 18.3335 13.3333 17.5868 13.3333 16.6668C13.3333 15.7468 14.08 15.0002 15 15.0002L16.6667 14.9985V13.3335C16.6667 12.4135 17.4133 11.6668 18.3333 11.6668Z" fill="url(#paint0_linear_102_10523)"/>
</g>
<defs>
<linearGradient id="paint0_linear_102_10523" x1="20.2236" y1="3.3335" x2="20.2236" y2="36.6668" gradientUnits="userSpaceOnUse">
<stop stop-color="#4A9AFF"/>
<stop offset="1" stop-color="#FBEB11"/>
</linearGradient>
<clipPath id="clip0_102_10523">
<rect width="40" height="40" fill="white"/>
</clipPath>
</defs>
</svg>
