<svg width="48" height="48" viewBox="0 0 48 48" fill="none" xmlns="http://www.w3.org/2000/svg">
<g clip-path="url(#clip0_102_10518)">
<path d="M36.7277 21.96C39.8517 25.082 39.8517 30.148 36.7277 33.272L25.4137 44.586C24.6337 45.366 23.3657 45.366 22.5857 44.586L11.2717 33.272C8.14771 30.148 8.14771 25.082 11.2717 21.958C14.3957 18.834 19.4617 18.834 22.5857 21.958L23.9977 23.372L25.4137 21.958C28.5377 18.834 33.6037 18.834 36.7277 21.958V21.96ZM14.0997 24.784C12.5397 26.346 12.5397 28.88 14.0997 30.442L23.9997 40.342L33.8997 30.442C35.4597 28.88 35.4597 26.346 33.8997 24.784C32.3377 23.224 29.8037 23.224 28.2397 24.788L23.9957 29.024L19.7557 24.784C18.1957 23.224 15.6617 23.224 14.0997 24.784ZM23.9997 2C28.4197 2 31.9997 5.58 31.9997 10C31.9997 14.42 28.4197 18 23.9997 18C19.5797 18 15.9997 14.42 15.9997 10C15.9997 5.58 19.5797 2 23.9997 2ZM23.9997 6C21.7897 6 19.9997 7.79 19.9997 10C19.9997 12.21 21.7897 14 23.9997 14C26.2097 14 27.9997 12.21 27.9997 10C27.9997 7.79 26.2097 6 23.9997 6Z" fill="url(#paint0_linear_102_10518)"/>
</g>
<defs>
<linearGradient id="paint0_linear_102_10518" x1="23.9997" y1="2" x2="23.9997" y2="45.171" gradientUnits="userSpaceOnUse">
<stop stop-color="#4A9AFF"/>
<stop offset="1" stop-color="#FBEB11"/>
</linearGradient>
<clipPath id="clip0_102_10518">
<rect width="48" height="48" fill="white"/>
</clipPath>
</defs>
</svg>
