<svg width="1662" height="526" viewBox="0 0 1662 526" fill="none" xmlns="http://www.w3.org/2000/svg"><path d="M1215.26 24.6951L1214.32 28.5441C1216.76 30.3806 1219.02 31.6746 1222.64 32.9062C1227.12 34.4302 1227.96 27.8226 1230.98 24.1821C1235.03 19.3063 1238.84 22.5555 1240.37 23.983L1242.14 20.6954C1239.57 19.5618 1236.68 18.2323 1234 18.1521C1228.9 17.9995 1226.39 25.8738 1224.74 28.3924C1223.34 30.5294 1218.04 26.9646 1215.26 24.6951Z" fill="#E9B11C"/><path d="M1338.1 39.5222L1339.05 43.3691C1342.05 43.8743 1344.66 43.974 1348.44 43.3928C1353.11 42.6736 1350.8 36.4284 1351.8 31.8034C1353.13 25.6088 1358.02 26.7257 1360.03 27.2854L1360.08 23.5511C1357.28 23.7337 1354.11 23.8902 1351.69 25.0591C1347.09 27.2833 1348.51 35.4225 1348.21 38.4192C1347.96 40.9618 1341.61 40.2508 1338.1 39.5222Z" fill="#377EF9"/><circle cx="1598" cy="254.8" r="6" fill="#377EF9"/><circle cx="1625" cy="72.7998" r="6" fill="#377EF9"/><circle cx="1642.5" cy="100.3" r="3.5" fill="#FFC0BE"/><circle cx="1553" cy="395.8" r="6" fill="#E9B11C"/><path d="M419.737 62.4949L420.675 66.3439C418.245 68.1804 415.979 69.4744 412.358 70.7061C407.879 72.23 407.044 65.6224 404.022 61.9819C399.975 57.1061 396.158 60.3553 394.631 61.7828L392.859 58.4952C395.428 57.3616 398.317 56.0321 401 55.9519C406.104 55.7993 408.606 63.6736 410.258 66.1922C411.659 68.3292 416.959 64.7644 419.737 62.4949Z" fill="#E9B11C"/><path d="M256.5 2.34746L259.846 4.46961C259.368 7.47817 258.633 9.98205 256.879 13.3801C254.709 17.5843 249.525 13.403 244.823 12.876C238.526 12.1703 238.029 17.1581 237.919 19.2459L234.362 18.1061C235.427 15.5076 236.587 12.5461 238.464 10.6279C242.035 6.97795 249.299 10.9157 252.235 11.585C254.727 12.1528 256.073 5.90872 256.5 2.34746Z" fill="#377EF9"/><path d="M155.498 279.077L159.176 277.604C161.338 279.751 162.939 281.812 164.67 285.222C166.811 289.441 160.387 291.2 157.21 294.706C152.955 299.402 156.711 302.721 158.34 304.032L155.336 306.25C153.85 303.867 152.126 301.195 151.668 298.55C150.796 293.519 158.238 289.929 160.498 287.939C162.415 286.25 158.138 281.506 155.498 279.077Z" fill="#FFC0BE"/><path d="M1018.18 42.1411L1016.66 45.8026C1013.62 45.8516 1011.02 45.5593 1007.38 44.418C1002.86 43.0059 1006.08 37.1782 1005.79 32.456C1005.4 26.1313 1000.4 26.503 998.326 26.7543L998.835 23.0545C1001.58 23.6551 1004.7 24.2861 1006.91 25.804C1011.12 28.6922 1008.49 36.5263 1008.34 39.5341C1008.21 42.0862 1014.6 42.335 1018.18 42.1411Z" fill="#FFC0BE"/><circle cx="6" cy="6" r="6" transform="matrix(-1 0 0 1 110 242.8)" fill="#377EF9"/><circle cx="12.5" cy="12.5" r="18" transform="matrix(-1 0 0 1 164 98)" stroke="#FFC0BE" stroke-width="11"/><circle cx="12.5" cy="12.5" r="18" transform="matrix(-1 0 0 1 1651 490)" stroke="#FFC0BE" stroke-width="11"/><circle cx="6" cy="6" r="6" transform="matrix(-1 0 0 1 83 60.7998)" fill="#377EF9"/><circle cx="3.5" cy="3.5" r="3.5" transform="matrix(-1 0 0 1 63 90.7998)" fill="#FFC0BE"/><circle cx="6" cy="6" r="6" transform="matrix(-1 0 0 1 155 383.8)" fill="#E9B11C"/><circle cx="13.5" cy="13.5" r="13.5" transform="matrix(-1 0 0 1 27 313)" fill="#E9B11C"/><circle cx="8.5" cy="8.5" r="8.5" transform="matrix(-1 0 0 1 612 0)" fill="#E9B11C"/><circle cx="8.5" cy="8.5" r="8.5" transform="matrix(-1 0 0 1 1121 37)" fill="#377EF9"/></svg>