<svg width="165" height="158" viewBox="0 0 165 158" fill="none" xmlns="http://www.w3.org/2000/svg"><path d="M160.064 156.534L158.262 156.973C157.402 155.835 156.796 154.774 156.219 153.079C155.506 150.982 158.6 150.591 160.304 149.176C162.587 147.281 161.066 145.494 160.398 144.779L161.937 143.949C162.468 145.152 163.09 146.505 163.128 147.761C163.199 150.151 159.512 151.322 158.333 152.096C157.332 152.752 159.001 155.233 160.064 156.534Z" fill="#E9B11C"/><path d="M158.227 120.101L157.233 121.668C155.825 121.444 154.652 121.1 153.061 120.279C151.093 119.263 153.051 116.835 153.297 114.634C153.628 111.685 151.292 111.453 150.315 111.401L150.848 109.736C152.065 110.234 153.452 110.777 154.35 111.656C156.059 113.328 154.215 116.729 153.902 118.104C153.636 119.271 156.56 119.901 158.227 120.101Z" fill="#377EF9"/><path d="M58.6533 12.8096L59.3429 14.5317C58.3379 15.5438 57.3729 16.2934 55.7763 17.1038C53.8009 18.1065 52.9768 15.0988 51.3353 13.6112C49.1367 11.6188 47.5823 13.3774 46.9687 14.1401L45.93 12.7333C47.046 12.038 48.2973 11.2306 49.5354 11.016C51.8914 10.6076 53.572 14.0922 54.504 15.1504C55.2948 16.0483 57.516 14.0453 58.6533 12.8096Z" fill="#FFC0BE"/><circle cx="2.80939" cy="2.80939" r="2.80939" transform="matrix(4.37114e-08 -1 -1 -4.37114e-08 95.6396 11.5059)" fill="#FFE667"/><circle cx="5.85289" cy="5.85289" r="11.3529" transform="matrix(4.37114e-08 -1 -1 -4.37114e-08 143.439 76.79)" stroke="#FFC0BE" stroke-width="11"/><circle cx="2.80939" cy="2.80939" r="2.80939" transform="matrix(4.37114e-08 -1 -1 -4.37114e-08 130.857 38.8633)" fill="#377EF9"/><circle cx="1.63881" cy="1.63881" r="1.63881" transform="matrix(4.37114e-08 -1 -1 -4.37114e-08 116.811 29.499)" fill="#FFC0BE"/><circle cx="2.80939" cy="2.80939" r="2.80939" transform="matrix(4.37114e-08 -1 -1 -4.37114e-08 149.619 12.5762)" fill="#E9B11C"/><circle cx="9.5" cy="9.5" r="8" transform="matrix(4.37114e-08 -1 -1 -4.37114e-08 19 19)" stroke="#FFE667" stroke-width="3"/></svg>