<svg width="1662" height="526" viewBox="0 0 1662 526" fill="none" xmlns="http://www.w3.org/2000/svg"><path d="M419.737 62.4949L420.675 66.3439C418.245 68.1804 415.979 69.4744 412.358 70.7061C407.879 72.23 407.044 65.6224 404.022 61.9819C399.975 57.1061 396.158 60.3553 394.631 61.7828L392.859 58.4952C395.428 57.3616 398.317 56.0321 401 55.9519C406.104 55.7993 408.606 63.6736 410.258 66.1922C411.659 68.3292 416.959 64.7644 419.737 62.4949Z" fill="#E9B11C"/><path d="M256.5 2.34746L259.846 4.46961C259.369 7.47817 258.633 9.98205 256.879 13.3801C254.709 17.5843 249.525 13.403 244.823 12.876C238.526 12.1703 238.03 17.1581 237.919 19.2459L234.363 18.1061C235.428 15.5076 236.587 12.5461 238.464 10.6279C242.036 6.97795 249.299 10.9157 252.236 11.585C254.727 12.1528 256.073 5.90872 256.5 2.34746Z" fill="#377EF9"/><path d="M155.498 279.077L159.176 277.604C161.338 279.751 162.939 281.812 164.67 285.222C166.811 289.441 160.387 291.2 157.21 294.706C152.955 299.402 156.711 302.721 158.34 304.032L155.336 306.25C153.85 303.867 152.126 301.195 151.668 298.55C150.796 293.519 158.238 289.929 160.498 287.939C162.415 286.25 158.138 281.506 155.498 279.077Z" fill="#FFC0BE"/><path d="M1018.18 42.0961L1016.66 45.7576C1013.62 45.8067 1011.02 45.5144 1007.38 44.3731C1002.86 42.961 1006.08 37.1332 1005.79 32.411C1005.4 26.0863 1000.4 26.458 998.326 26.7094L998.835 23.0096C1001.58 23.6102 1004.7 24.2412 1006.91 25.7591C1011.12 28.6473 1008.49 36.4814 1008.34 39.4892C1008.21 42.0412 1014.6 42.29 1018.18 42.0961Z" fill="#FFC0BE"/><circle cx="6" cy="6" r="6" transform="matrix(-1 0 0 1 110 242.8)" fill="#377EF9"/><circle cx="12.5" cy="12.5" r="18" transform="matrix(-1 0 0 1 164 98)" stroke="#FFC0BE" stroke-width="11"/><circle cx="12.5" cy="12.5" r="18" transform="matrix(-1 0 0 1 1651 490)" stroke="#FFC0BE" stroke-width="11"/><circle cx="6" cy="6" r="6" transform="matrix(-1 0 0 1 83 60.7998)" fill="#377EF9"/><circle cx="3.5" cy="3.5" r="3.5" transform="matrix(-1 0 0 1 63 90.7998)" fill="#FFC0BE"/><circle cx="6" cy="6" r="6" transform="matrix(-1 0 0 1 155 383.8)" fill="#E9B11C"/><circle cx="13.5" cy="13.5" r="13.5" transform="matrix(-1 0 0 1 27 313)" fill="#E9B11C"/><circle cx="8.5" cy="8.5" r="8.5" transform="matrix(-1 0 0 1 612 0)" fill="#E9B11C"/><circle cx="8.5" cy="8.5" r="8.5" transform="matrix(-1 0 0 1 1121 37)" fill="#377EF9"/></svg>