<svg width="25" height="24" viewBox="0 0 25 24" fill="none" xmlns="http://www.w3.org/2000/svg"><g id="Frame 48"><g id="Group 522"><path id="Vector" d="M16.375 1H8.125C4.3286 1 1.25 4.0786 1.25 7.875V16.125C1.25 19.9214 4.3286 23 8.125 23H16.375C20.1714 23 23.25 19.9214 23.25 16.125V7.875C23.25 4.0786 20.1714 1 16.375 1ZM21.1875 16.125C21.1875 18.7787 19.0287 20.9375 16.375 20.9375H8.125C5.4713 20.9375 3.3125 18.7787 3.3125 16.125V7.875C3.3125 5.2213 5.4713 3.0625 8.125 3.0625H16.375C19.0287 3.0625 21.1875 5.2213 21.1875 7.875V16.125Z" fill="#E9B11C"/><path id="Vector_2" d="M12.25 6.5C9.2126 6.5 6.75 8.9626 6.75 12C6.75 15.0374 9.2126 17.5 12.25 17.5C15.2874 17.5 17.75 15.0374 17.75 12C17.75 8.9626 15.2874 6.5 12.25 6.5ZM12.25 15.4375C10.3552 15.4375 8.8125 13.8948 8.8125 12C8.8125 10.1039 10.3552 8.5625 12.25 8.5625C14.1448 8.5625 15.6875 10.1039 15.6875 12C15.6875 13.8948 14.1448 15.4375 12.25 15.4375Z" fill="#E9B11C"/><path id="Vector_3" d="M18.1626 6.82029C18.5673 6.82029 18.8954 6.49209 18.8954 6.08739C18.8954 5.68259 18.5673 5.35449 18.1626 5.35449C17.7578 5.35449 17.4297 5.68259 17.4297 6.08739C17.4297 6.49209 17.7578 6.82029 18.1626 6.82029Z" fill="#E9B11C"/></g></g></svg>