<svg width="390" height="1110" viewBox="0 0 390 1110" fill="none" xmlns="http://www.w3.org/2000/svg"><mask id="mask0_102_12674" style="mask-type:alpha" maskUnits="userSpaceOnUse" x="0" y="0" width="390" height="1110"><rect width="390" height="1110" fill="#D9D9D9"/></mask><g mask="url(#mask0_102_12674)"><path d="M0 98.7481V-2.09863H104C104 10.492 96.5606 9.47395 70.1431 18.732C43.7255 27.9901 35.9825 50.1433 23.5328 82.5465C13.5731 108.469 3.6944 104.149 0 98.7481Z" fill="#FEF6CC"/><path d="M390 482.74V843.299C373.574 854.33 347.382 801.681 334.863 772.685C315.008 726.698 362.298 675.627 363.364 650.413C364.429 625.199 344.985 622.362 349.246 569.098C352.656 526.486 377.836 493.771 390 482.74Z" fill="#FEF6CC"/><path d="M373.327 -2.09863H212C224.17 20.7976 241.956 32.5249 257.871 40.9016C273.785 49.2783 326.208 59.0511 354.604 36.4341C377.321 18.3404 376.551 3.20659 373.327 -2.09863Z" fill="#FEF6CC"/><path d="M-6.44615e-06 785.472L0 630.711C17.4541 642.385 26.3941 659.448 32.7797 674.714C39.1654 689.981 46.6153 740.271 29.374 767.511C15.581 789.303 4.04425 788.565 -6.44615e-06 785.472Z" fill="#FEF6CC"/></g></svg>