<svg width="1728" height="708" viewBox="0 0 1728 708" fill="none" xmlns="http://www.w3.org/2000/svg"><mask id="mask0_102_10335" style="mask-type:alpha" maskUnits="userSpaceOnUse" x="0" y="0" width="1728" height="708"><rect width="1728" height="708" fill="#D9D9D9"/></mask><g mask="url(#mask0_102_10335)"><path d="M0 150.241V-2.25927H342.698C342.698 16.7802 318.184 15.2407 231.134 29.2407C144.083 43.2407 118.569 76.7407 77.5449 125.741C44.7259 164.941 12.1737 158.407 0 150.241Z" fill="#FEF6CC"/><path d="M1728 231.024V803.024C1697.15 820.524 1647.95 737 1624.44 691C1587.15 618.046 1675.97 537.024 1677.97 497.024C1679.97 457.024 1643.45 452.524 1651.46 368.024C1657.86 300.424 1705.15 248.524 1728 231.024Z" fill="#FEF6CC"/><path d="M765.124 -1.5H1023.77C1004.26 39.5 975.746 60.5 950.231 75.5C924.716 90.5 840.667 108 795.141 67.5C758.72 35.1 759.954 8 765.124 -1.5Z" fill="#FEF6CC"/><path d="M-1.12994e-05 859.5L0 601C41.0237 620.5 62.0359 649 77.0446 674.5C92.0533 700 109.563 784 69.04 829.5C36.6212 865.9 9.50549 864.667 -1.12994e-05 859.5Z" fill="#FEF6CC"/></g></svg>