<svg width="64" height="64" viewBox="0 0 64 64" fill="none" xmlns="http://www.w3.org/2000/svg"><path d="M60.9764 32C60.9646 48.0184 47.9797 61 31.9786 61C15.9776 61 3.01194 48.0184 3.0238 32C3.03565 15.9816 16.0205 3 32.0216 3C48.0227 3 60.9883 15.9816 60.9764 32Z" stroke="#377EF9" stroke-width="6"/><path d="M31.3497 41.24C30.1657 41.24 29.0057 41.072 27.8697 40.736C26.7497 40.384 25.8057 39.904 25.0377 39.296L26.3817 36.872C26.9897 37.368 27.7257 37.768 28.5897 38.072C29.4537 38.376 30.3577 38.528 31.3017 38.528C32.4217 38.528 33.2937 38.304 33.9177 37.856C34.5417 37.392 34.8537 36.768 34.8537 35.984C34.8537 35.216 34.5657 34.608 33.9897 34.16C33.4137 33.712 32.4857 33.488 31.2057 33.488H29.6697V31.352L34.4697 25.64L34.8777 26.816H25.8537V24.2H37.3017V26.288L32.5017 32L30.8697 31.04H31.8057C33.8697 31.04 35.4137 31.504 36.4377 32.432C37.4777 33.344 37.9977 34.52 37.9977 35.96C37.9977 36.904 37.7577 37.776 37.2777 38.576C36.7977 39.376 36.0617 40.024 35.0697 40.52C34.0937 41 32.8537 41.24 31.3497 41.24Z" fill="black"/></svg>