<svg width="25" height="24" viewBox="0 0 25 24" fill="none" xmlns="http://www.w3.org/2000/svg"><g id="mingcute:telegram-fill" clip-path="url(#clip0_102_10697)"><g id="Group"><path id="Vector" fill-rule="evenodd" clip-rule="evenodd" d="M19.0267 4.42997C19.2738 4.32596 19.5443 4.29008 19.8099 4.32608C20.0756 4.36208 20.3268 4.46863 20.5373 4.63465C20.7479 4.80067 20.9101 5.02008 21.007 5.27005C21.104 5.52002 21.1322 5.79141 21.0887 6.05597L18.8207 19.813C18.6007 21.14 17.1447 21.901 15.9277 21.24C14.9097 20.687 13.3977 19.835 12.0377 18.946C11.3577 18.501 9.27465 17.076 9.53065 16.062C9.75065 15.195 13.2507 11.937 15.2507 9.99997C16.0357 9.23897 15.6777 8.79997 14.7507 9.49997C12.4477 11.238 8.75265 13.881 7.53065 14.625C6.45265 15.281 5.89065 15.393 5.21865 15.281C3.99265 15.077 2.85565 14.761 1.92765 14.376C0.673654 13.856 0.734654 12.132 1.92665 11.63L19.0267 4.42997Z" fill="#E9B11C"/></g></g><defs><clipPath id="clip0_102_10697"><rect width="24" height="24" fill="white" transform="translate(0.25)"/></clipPath></defs></svg>