<svg width="1728" height="685" viewBox="0 0 1728 685" fill="none" xmlns="http://www.w3.org/2000/svg"><rect width="1728" height="685" transform="matrix(1 0 0 -1 0 685)" fill="#E5EDF7" fill-opacity="0.7"/><path d="M1240.26 48.6951L1239.32 52.5441C1241.76 54.3806 1244.02 55.6746 1247.64 56.9062C1252.12 58.4302 1252.96 51.8226 1255.98 48.1821C1260.03 43.3063 1263.84 46.5555 1265.37 47.983L1267.14 44.6954C1264.57 43.5618 1261.68 42.2323 1259 42.1521C1253.9 41.9995 1251.39 49.8738 1249.74 52.3924C1248.34 54.5294 1243.04 50.9646 1240.26 48.6951Z" fill="#E9B11C"/><path d="M1363.1 63.5222L1364.05 67.3691C1367.05 67.8743 1369.66 67.974 1373.44 67.3928C1378.11 66.6736 1375.8 60.4284 1376.8 55.8034C1378.13 49.6088 1383.02 50.7257 1385.03 51.2854L1385.08 47.5511C1382.28 47.7337 1379.11 47.8902 1376.69 49.0591C1372.09 51.2833 1373.51 59.4225 1373.21 62.4192C1372.96 64.9618 1366.61 64.2508 1363.1 63.5222Z" fill="#377EF9"/><path d="M1571.5 309.077L1567.82 307.604C1565.66 309.751 1564.06 311.812 1562.33 315.222C1560.19 319.441 1566.61 321.2 1569.79 324.706C1574.04 329.402 1570.29 332.721 1568.66 334.032L1571.66 336.25C1573.15 333.867 1574.87 331.195 1575.33 328.55C1576.2 323.519 1568.76 319.929 1566.5 317.939C1564.58 316.25 1568.86 311.506 1571.5 309.077Z" fill="#FFC0BE"/><circle cx="1623" cy="278.8" r="6" fill="#377EF9"/><circle cx="1650" cy="96.7998" r="6" fill="#377EF9"/><circle cx="1667.5" cy="124.3" r="3.5" fill="#FFC0BE"/><circle cx="1578" cy="419.8" r="6" fill="#E9B11C"/><path d="M444.737 86.4949L445.675 90.3439C443.245 92.1804 440.979 93.4744 437.358 94.7061C432.879 96.23 432.044 89.6224 429.022 85.9819C424.975 81.1061 421.158 84.3553 419.631 85.7828L417.859 82.4952C420.428 81.3616 423.317 80.0321 426 79.9519C431.104 79.7993 433.606 87.6736 435.258 90.1922C436.659 92.3292 441.959 88.7644 444.737 86.4949Z" fill="#E9B11C"/><path d="M281.5 26.3475L284.846 28.4696C284.369 31.4782 283.633 33.9821 281.879 37.3801C279.709 41.5843 274.525 37.403 269.823 36.876C263.526 36.1703 263.03 41.1581 262.919 43.2459L259.363 42.1061C260.428 39.5076 261.587 36.5461 263.464 34.6279C267.036 30.978 274.299 34.9157 277.236 35.585C279.727 36.1528 281.073 29.9087 281.5 26.3475Z" fill="#377EF9"/><path d="M180.498 303.077L184.176 301.604C186.338 303.751 187.939 305.812 189.67 309.222C191.811 313.441 185.387 315.2 182.21 318.706C177.955 323.402 181.711 326.721 183.34 328.032L180.336 330.25C178.85 327.867 177.126 325.195 176.668 322.55C175.796 317.519 183.238 313.929 185.498 311.939C187.415 310.25 183.138 305.506 180.498 303.077Z" fill="#FFC0BE"/><path d="M1043.18 66.1411L1041.66 69.8026C1038.62 69.8516 1036.02 69.5593 1032.38 68.418C1027.86 67.0059 1031.08 61.1782 1030.79 56.456C1030.4 50.1313 1025.4 50.503 1023.33 50.7543L1023.84 47.0545C1026.58 47.6551 1029.7 48.2861 1031.91 49.804C1036.12 52.6922 1033.49 60.5263 1033.34 63.5341C1033.21 66.0862 1039.6 66.335 1043.18 66.1411Z" fill="#FFC0BE"/><circle cx="6" cy="6" r="6" transform="matrix(-1 0 0 1 135 266.8)" fill="#377EF9"/><circle cx="12.5" cy="12.5" r="18" transform="matrix(-1 0 0 1 189 122)" stroke="#FFC0BE" stroke-width="11"/><circle cx="12.5" cy="12.5" r="18" transform="matrix(-1 0 0 1 1676 514)" stroke="#FFC0BE" stroke-width="11"/><circle cx="6" cy="6" r="6" transform="matrix(-1 0 0 1 108 84.7998)" fill="#377EF9"/><circle cx="3.5" cy="3.5" r="3.5" transform="matrix(-1 0 0 1 88 114.8)" fill="#FFC0BE"/><circle cx="6" cy="6" r="6" transform="matrix(-1 0 0 1 180 407.8)" fill="#E9B11C"/><circle cx="13.5" cy="13.5" r="13.5" transform="matrix(-1 0 0 1 52 337)" fill="#E9B11C"/><circle cx="8.5" cy="8.5" r="8.5" transform="matrix(-1 0 0 1 637 24)" fill="#E9B11C"/><circle cx="8.5" cy="8.5" r="8.5" transform="matrix(-1 0 0 1 1146 61)" fill="#377EF9"/></svg>